<?xml version="1.0" encoding="UTF-8"?>
<svg xmlns="http://www.w3.org/2000/svg" viewBox="0 0 2400 1350" width="2400" height="1350" role="img" aria-labelledby="tickit-commerce-intelligence-access-layer-title tickit-commerce-intelligence-access-layer-description" shape-rendering="geometricPrecision"><title id="tickit-commerce-intelligence-access-layer-title">TickIT shipped access capability layer</title><desc id="tickit-commerce-intelligence-access-layer-description">Transparent companion plate isolating author-verified QR generation, validation, friend sharing, and attendee access management, plus separate dotted local QR WIP artifacts.</desc><metadata>{&quot;schema_version&quot;:&quot;tickit.visual_truth.v1&quot;,&quot;surface&quot;:&quot;tickit-commerce-intelligence-access-layer&quot;,&quot;source_ledger&quot;:&quot;scripts/tickit-visuals/truth-ledger.json&quot;,&quot;generator&quot;:&quot;scripts/generate-tickit-visuals.mjs&quot;,&quot;snapshots&quot;:{&quot;cv-site&quot;:&quot;c67e442ebcd10b5f94babe455a686b6c3675f039&quot;,&quot;tickit&quot;:&quot;0f0c39c5cf5c3e5ec228f8c4411b0c0f9da1d0e7&quot;,&quot;tickit-client&quot;:&quot;824b208b4e337d8560aeb72519d7eb17593cf318&quot;,&quot;author-attestation&quot;:&quot;2026-07-30&quot;,&quot;tickit-rails-stash&quot;:&quot;cbf3a8f59c1d7bf608eca3947a93569fc9c2fcf6&quot;,&quot;tickit-client-stash&quot;:&quot;f8a24157412b281d3f329056477d1a768923cb46&quot;},&quot;claim_ids&quot;:[&quot;access-friend-sharing&quot;,&quot;access-management&quot;,&quot;access-plane&quot;,&quot;access-qr-generation&quot;,&quot;access-qr-validation&quot;,&quot;access-rail&quot;,&quot;flow-access&quot;,&quot;flow-wip&quot;,&quot;wip-client&quot;,&quot;wip-mismatch&quot;,&quot;wip-rail&quot;,&quot;wip-rails&quot;,&quot;wip-separation&quot;]}</metadata><defs><style>.display{font-family:"Arial Narrow","Helvetica Neue",Arial,sans-serif;font-stretch:condensed}
    .sans{font-family:"Helvetica Neue",Arial,sans-serif}
    .mono{font-family:"SFMono-Regular",Menlo,Consolas,monospace}
    .current-line{fill:none;stroke:#e6d12a;stroke-width:3;stroke-linecap:square;stroke-linejoin:miter;vector-effect:non-scaling-stroke}
    .history-line{fill:none;stroke:#6f9ec4;stroke-width:3;stroke-linecap:square;stroke-linejoin:miter;vector-effect:non-scaling-stroke}
    .wip-line{fill:none;stroke:#817f78;stroke-width:2;stroke-dasharray:5 10;stroke-linecap:round;stroke-linejoin:round;vector-effect:non-scaling-stroke}
    .structure-line{fill:none;stroke:#5a584f;stroke-width:2;stroke-linecap:square;stroke-linejoin:miter;vector-effect:non-scaling-stroke}
    .fine-line{fill:none;stroke:#34332e;stroke-width:1.25;vector-effect:non-scaling-stroke}</style><pattern id="technical-grid" width="54" height="54" patternUnits="userSpaceOnUse"><line x1="0" y1="0" x2="54" y2="0" stroke="#34332e" stroke-width="1" stroke-opacity="0.4"/><line x1="0" y1="0" x2="0" y2="54" stroke="#34332e" stroke-width="1" stroke-opacity="0.4"/></pattern><pattern id="wip-hatch" width="14" height="14" patternUnits="userSpaceOnUse"><line x1="0" y1="14" x2="14" y2="0" stroke="#817f78" stroke-width="1" stroke-opacity="0.25"/></pattern><marker id="arrow-current" viewBox="0 0 10 10" refX="8.5" refY="5" markerWidth="4" markerHeight="4" orient="auto-start-reverse"><path d="M 0 0 L 10 5 L 0 10 z" fill="#e6d12a"/></marker><marker id="arrow-history" viewBox="0 0 10 10" refX="8.5" refY="5" markerWidth="4" markerHeight="4" orient="auto-start-reverse"><path d="M 0 0 L 10 5 L 0 10 z" fill="#6f9ec4"/></marker><marker id="arrow-wip" viewBox="0 0 10 10" refX="8.5" refY="5" markerWidth="4" markerHeight="4" orient="auto-start-reverse"><path d="M 0 0 L 10 5 L 0 10 z" fill="#817f78"/></marker></defs><g aria-hidden="true"><line x1="46" y1="46" x2="100" y2="46" stroke="#6f9ec4" stroke-width="2"/><line x1="46" y1="46" x2="46" y2="100" stroke="#6f9ec4" stroke-width="2"/><circle cx="46" cy="46" r="5" fill="#0b0b0a" stroke="#6f9ec4" stroke-width="2"/><line x1="2354" y1="46" x2="2300" y2="46" stroke="#6f9ec4" stroke-width="2"/><line x1="2354" y1="46" x2="2354" y2="100" stroke="#6f9ec4" stroke-width="2"/><circle cx="2354" cy="46" r="5" fill="#0b0b0a" stroke="#6f9ec4" stroke-width="2"/><line x1="46" y1="1304" x2="100" y2="1304" stroke="#6f9ec4" stroke-width="2"/><line x1="46" y1="1304" x2="46" y2="1250" stroke="#6f9ec4" stroke-width="2"/><circle cx="46" cy="1304" r="5" fill="#0b0b0a" stroke="#6f9ec4" stroke-width="2"/><line x1="2354" y1="1304" x2="2300" y2="1304" stroke="#6f9ec4" stroke-width="2"/><line x1="2354" y1="1304" x2="2354" y2="1250" stroke="#6f9ec4" stroke-width="2"/><circle cx="2354" cy="1304" r="5" fill="#0b0b0a" stroke="#6f9ec4" stroke-width="2"/></g><g data-claim-id="access-plane"><polygon points="274,775 2054,775 2054,788 274,788" fill="#10100f" stroke="#34332e" stroke-width="1.5"/><polygon points="346,535 2126,535 2054,775 274,775" fill="#15212b" fill-opacity="0.96" stroke="#6f9ec4" stroke-width="2.25"/><line x1="308" y1="556" x2="2022" y2="556" stroke="#6f9ec4" stroke-width="1" stroke-opacity="0.55"/><line x1="302" y1="751" x2="2014" y2="751" stroke="#34332e" stroke-width="1"/><g><text x="70" y="619" class="mono" fill="#6f9ec4" font-size="18" font-weight="700" letter-spacing="1">02 / ACCESS</text></g><line x1="70" y1="661" x2="286" y2="661" stroke="#6f9ec4" stroke-width="1.5"/></g><g data-claim-id="access-rail"><line x1="352" y1="594" x2="922" y2="594" stroke="#6f9ec4" stroke-width="2"/><rect x="352" y="571" width="10" height="10" fill="#6f9ec4" opacity="1"/><text x="376" y="582" class="mono" fill="#6f9ec4" font-size="14" font-weight="700" letter-spacing="1">AUTHOR-VERIFIED SHIPPED ACCESS</text></g><g data-claim-id="access-qr-generation"><rect x="420" y="603" width="300" height="62" rx="4" fill="#6f9ec4" stroke="#6f9ec4" stroke-width="2.5"/><rect x="420" y="603" width="300" height="6" fill="#6f9ec4" opacity="1"/><g><text x="437" y="640" class="mono" fill="#0c1116" font-size="17" font-weight="760" letter-spacing="0.5">QR GENERATION</text></g><line x1="698" y1="653" x2="710" y2="653" stroke="#6f9ec4" stroke-width="2"/></g><g data-claim-id="access-qr-validation"><rect x="770" y="603" width="300" height="62" rx="4" fill="#15212b" stroke="#6f9ec4" stroke-width="1.5"/><rect x="770" y="603" width="300" height="6" fill="#6f9ec4" opacity="1"/><g><text x="787" y="640" class="mono" fill="#f1efe8" font-size="17" font-weight="620" letter-spacing="0.5">QR VALIDATION</text></g><line x1="1048" y1="653" x2="1060" y2="653" stroke="#6f9ec4" stroke-width="2"/></g><g data-claim-id="access-friend-sharing"><rect x="1120" y="603" width="300" height="62" rx="4" fill="#15212b" stroke="#6f9ec4" stroke-width="1.5"/><rect x="1120" y="603" width="300" height="6" fill="#6f9ec4" opacity="1"/><g><text x="1137" y="640" class="mono" fill="#f1efe8" font-size="17" font-weight="620" letter-spacing="0.5">FRIEND SHARING</text></g><line x1="1398" y1="653" x2="1410" y2="653" stroke="#6f9ec4" stroke-width="2"/></g><g data-claim-id="access-management"><rect x="1470" y="603" width="390" height="62" rx="4" fill="#15212b" stroke="#6f9ec4" stroke-width="1.5"/><rect x="1470" y="603" width="390" height="6" fill="#6f9ec4" opacity="1"/><g><text x="1487" y="640" class="mono" fill="#f1efe8" font-size="17" font-weight="620" letter-spacing="0.5">ATTENDEE ACCESS MANAGEMENT</text></g><line x1="1838" y1="653" x2="1850" y2="653" stroke="#6f9ec4" stroke-width="2"/></g><g data-claim-id="flow-access" fill="none"><polyline points="570,679 1665,679" class="history-line"/><polyline points="570,665 570,679" class="history-line"/><polyline points="920,665 920,679" class="history-line"/><polyline points="1270,665 1270,679" class="history-line"/><polyline points="1665,665 1665,679" class="history-line"/></g><g data-claim-id="wip-rail"><line x1="352" y1="731" x2="677" y2="731" stroke="#817f78" stroke-width="2" stroke-dasharray="5 10"/><rect x="352" y="708" width="10" height="10" fill="#817f78" opacity="0.55"/><text x="376" y="719" class="mono" fill="#817f78" font-size="14" font-weight="700" letter-spacing="1">LOCAL QR WIP / JAN 2025</text></g><g data-claim-id="wip-rails"><rect x="700" y="692" width="260" height="58" rx="4" fill="url(#wip-hatch)" stroke="#817f78" stroke-width="1.5" stroke-dasharray="5 10"/><rect x="700" y="692" width="260" height="6" fill="#817f78" opacity="0.45"/><g><text x="717" y="727" class="mono" fill="#817f78" font-size="14" font-weight="620" letter-spacing="0.5">RAILS TOKEN DRAFT</text></g><line x1="938" y1="738" x2="950" y2="738" stroke="#817f78" stroke-width="2" stroke-dasharray="5 10"/></g><g data-claim-id="wip-client"><rect x="1000" y="692" width="270" height="58" rx="4" fill="url(#wip-hatch)" stroke="#817f78" stroke-width="1.5" stroke-dasharray="5 10"/><rect x="1000" y="692" width="270" height="6" fill="#817f78" opacity="0.45"/><g><text x="1017" y="727" class="mono" fill="#817f78" font-size="14" font-weight="620" letter-spacing="0.5">CLIENT QR VIEWER DRAFT</text></g><line x1="1248" y1="738" x2="1260" y2="738" stroke="#817f78" stroke-width="2" stroke-dasharray="5 10"/></g><g data-claim-id="wip-mismatch"><rect x="1310" y="692" width="290" height="58" rx="4" fill="url(#wip-hatch)" stroke="#817f78" stroke-width="1.5" stroke-dasharray="5 10"/><rect x="1310" y="692" width="290" height="6" fill="#817f78" opacity="0.45"/><g><text x="1327" y="727" class="mono" fill="#817f78" font-size="13" font-weight="620" letter-spacing="0.5">EXPIRATION OPTIONS DISAGREE</text></g><line x1="1578" y1="738" x2="1590" y2="738" stroke="#817f78" stroke-width="2" stroke-dasharray="5 10"/></g><g data-claim-id="wip-separation"><rect x="1640" y="692" width="330" height="58" rx="4" fill="url(#wip-hatch)" stroke="#817f78" stroke-width="1.5" stroke-dasharray="5 10"/><rect x="1640" y="692" width="330" height="6" fill="#817f78" opacity="0.45"/><g><text x="1657" y="727" class="mono" fill="#817f78" font-size="13" font-weight="620" letter-spacing="0.5">NOT THE SHIPPED ACCESS PATH</text></g><line x1="1948" y1="738" x2="1960" y2="738" stroke="#817f78" stroke-width="2" stroke-dasharray="5 10"/></g><g data-claim-id="flow-wip" fill="none"><polyline points="960,721 1000,721" class="wip-line"/><polyline points="1270,721 1310,721" class="wip-line"/><polyline points="1600,721 1640,721" class="wip-line"/></g></svg>
