<?xml version="1.0" encoding="UTF-8"?>
<svg xmlns="http://www.w3.org/2000/svg" viewBox="0 0 2400 1350" width="2400" height="1350" role="img" aria-labelledby="move-agent-interface-runtime-layer-title move-agent-interface-runtime-layer-description" shape-rendering="geometricPrecision"><title id="move-agent-interface-runtime-layer-title">MOVE governed runtime layer</title><desc id="move-agent-interface-runtime-layer-description">Transparent companion layer isolating Databricks Model Serving, request governance, safe tool execution, evidence coverage, and bounded review.</desc><metadata>{&quot;schema_version&quot;:&quot;move.visual_truth.v1&quot;,&quot;surface&quot;:&quot;move-agent-interface-runtime-layer&quot;,&quot;source_ledger&quot;:&quot;scripts/move-visuals/truth-ledger.json&quot;,&quot;generator&quot;:&quot;scripts/generate-move-visuals.mjs&quot;,&quot;snapshots&quot;:{&quot;cv-site&quot;:&quot;0e883ec6ed6dd46c1968de57321b8dbb81f195d0&quot;,&quot;move-agent&quot;:&quot;3bedfdaa17a47354e2e77fc785d6a1610a70d464&quot;,&quot;move-interface&quot;:&quot;4000c8cf12e9784fe320ad761ee81a1fc134ed84&quot;,&quot;move-istruzioni&quot;:&quot;e36d6e24117fc2fd4a6aac82f57ae4e3459d9511&quot;},&quot;claim_ids&quot;:[&quot;agent-context&quot;,&quot;agent-docs&quot;,&quot;agent-edge-evidence&quot;,&quot;agent-edge-runtime&quot;,&quot;agent-edge-runtime-response&quot;,&quot;agent-edge-serving&quot;,&quot;agent-evidence&quot;,&quot;agent-executor&quot;,&quot;agent-identity&quot;,&quot;agent-mlflow&quot;,&quot;agent-plane-runtime&quot;,&quot;agent-repair&quot;,&quot;agent-responses-agent&quot;,&quot;agent-responses-task&quot;,&quot;agent-route&quot;,&quot;agent-serving&quot;,&quot;agent-sql&quot;,&quot;agent-state-off&quot;,&quot;agent-validate&quot;]}</metadata><defs><style>.display{font-family:"Arial Narrow","Helvetica Neue",Arial,sans-serif;font-stretch:condensed}
    .sans{font-family:"Helvetica Neue",Arial,sans-serif}
    .mono{font-family:"SFMono-Regular",Menlo,Consolas,monospace}
    .active-line{fill:none;stroke:#e6d12a;stroke-width:3;stroke-linecap:round;stroke-linejoin:round;vector-effect:non-scaling-stroke}
    .structure-line{fill:none;stroke:#55534a;stroke-width:2;stroke-linecap:round;stroke-linejoin:round;vector-effect:non-scaling-stroke}
    .fine-line{fill:none;stroke:#33332e;stroke-width:1.25;vector-effect:non-scaling-stroke}
    .optional-line{fill:none;stroke:#aaa79f;stroke-width:2;stroke-dasharray:13 11;stroke-linecap:round;vector-effect:non-scaling-stroke}</style><pattern id="technical-grid" width="54" height="54" patternUnits="userSpaceOnUse"><line x1="0" y1="0" x2="54" y2="0" stroke="#33332e" stroke-width="1" stroke-opacity="0.38"/><line x1="0" y1="0" x2="0" y2="54" stroke="#33332e" stroke-width="1" stroke-opacity="0.38"/></pattern><marker id="arrow-active" viewBox="0 0 10 10" refX="8.5" refY="5" markerWidth="7" markerHeight="7" orient="auto-start-reverse"><path d="M 0 0 L 10 5 L 0 10 z" fill="#e6d12a"/></marker><marker id="arrow-muted" viewBox="0 0 10 10" refX="8.5" refY="5" markerWidth="6" markerHeight="6" orient="auto-start-reverse"><path d="M 0 0 L 10 5 L 0 10 z" fill="#aaa79f"/></marker></defs><g><g><polygon points="344,805 2144,805 2144,823 344,823" fill="#171714" stroke="#11110f" stroke-width="3" stroke-linejoin="round"/><polygon points="2060,535 2144,805 2144,823 2060,553" fill="#25241f" stroke="#11110f" stroke-width="3" stroke-linejoin="round"/><polygon points="260,535 2060,535 2144,805 344,805" fill="#23231f" stroke="#11110f" stroke-width="3" stroke-linejoin="round"/><line x1="436" y1="605" x2="2034" y2="605" class="fine-line"/><circle cx="320" cy="580" r="12" fill="#e6d12a" stroke="#11110f" stroke-width="2"/><text x="436" y="584" class="display" fill="#f1efe8" font-size="24" font-weight="750" letter-spacing=".08em">02 / GOVERNED RUNTIME</text></g><g><rect x="720" y="557" width="310" height="58" rx="5" fill="#e6d12a" stroke="#11110f" stroke-width="2.5"/><text x="736" y="591" class="mono" fill="#11110f" font-size="16" font-weight="750" letter-spacing=".035em"><tspan x="736" dy="0">DATABRICKS MODEL SERVING</tspan></text></g><g><rect x="1050" y="568" width="205" height="36" rx="3" fill="#1e1e1a" stroke="#55534a" stroke-width="1.25"/><text x="1063" y="591" class="mono" fill="#aaa79f" font-size="11" font-weight="600" letter-spacing=".045em" text-anchor="start">agent/v1/responses</text></g><g><rect x="1275" y="557" width="300" height="58" rx="5" fill="#161614" stroke="#55534a" stroke-width="1.5"/><text x="1291" y="591" class="mono" fill="#f1efe8" font-size="16" font-weight="620" letter-spacing=".035em"><tspan x="1291" dy="0">MLFLOW ResponsesAgent</tspan></text></g><line x1="1030" y1="586" x2="1050" y2="586" class="active-line" marker-end="url(#arrow-active)"/><line x1="1255" y1="586" x2="1275" y2="586" class="active-line" marker-end="url(#arrow-active)"/><line x1="770" y1="683" x2="788" y2="683" class="active-line" marker-end="url(#arrow-active)"/><line x1="938" y1="683" x2="956" y2="683" class="active-line" marker-end="url(#arrow-active)"/><line x1="1146" y1="683" x2="1164" y2="683" class="active-line" marker-end="url(#arrow-active)"/><line x1="1384" y1="683" x2="1402" y2="683" class="active-line" marker-end="url(#arrow-active)"/><line x1="1582" y1="683" x2="1600" y2="683" class="active-line" marker-end="url(#arrow-active)"/><line x1="1780" y1="683" x2="1798" y2="683" class="active-line" marker-end="url(#arrow-active)"/><g><rect x="620" y="650" width="150" height="66" rx="5" fill="#161614" stroke="#55534a" stroke-width="1.5"/><text x="636" y="678" class="mono" fill="#f1efe8" font-size="15" font-weight="620" letter-spacing=".035em"><tspan x="636" dy="0">REQUEST</tspan><tspan x="636" dy="19">VALIDATION</tspan></text></g><g><rect x="788" y="650" width="150" height="66" rx="5" fill="#161614" stroke="#55534a" stroke-width="1.5"/><text x="804" y="678" class="mono" fill="#f1efe8" font-size="15" font-weight="620" letter-spacing=".035em"><tspan x="804" dy="0">TRUSTED</tspan><tspan x="804" dy="19">IDENTITY</tspan></text></g><g><rect x="956" y="650" width="190" height="66" rx="5" fill="#161614" stroke="#55534a" stroke-width="1.5"/><text x="972" y="678" class="mono" fill="#f1efe8" font-size="15" font-weight="620" letter-spacing=".035em"><tspan x="972" dy="0">ROUTE · SKILLS ·</tspan><tspan x="972" dy="19">TOOLS</tspan></text></g><g><rect x="1164" y="650" width="220" height="66" rx="5" fill="#161614" stroke="#55534a" stroke-width="1.5"/><text x="1180" y="678" class="mono" fill="#f1efe8" font-size="15" font-weight="620" letter-spacing=".035em"><tspan x="1180" dy="0">CONTEXT + GRAPH /</tspan><tspan x="1180" dy="19">DIRECT PATH</tspan></text></g><g><rect x="1402" y="650" width="180" height="66" rx="5" fill="#e6d12a" stroke="#11110f" stroke-width="2.5"/><text x="1418" y="688" class="mono" fill="#11110f" font-size="16" font-weight="750" letter-spacing=".035em"><tspan x="1418" dy="0">SafeToolExecutor</tspan></text></g><g><rect x="1600" y="650" width="180" height="66" rx="5" fill="#161614" stroke="#55534a" stroke-width="1.5"/><text x="1616" y="678" class="mono" fill="#f1efe8" font-size="15" font-weight="620" letter-spacing=".035em"><tspan x="1616" dy="0">EVIDENCE</tspan><tspan x="1616" dy="19">COVERAGE</tspan></text></g><g><rect x="1798" y="650" width="168" height="66" rx="5" fill="#161614" stroke="#55534a" stroke-width="1.5"/><text x="1814" y="678" class="mono" fill="#f1efe8" font-size="15" font-weight="620" letter-spacing=".035em"><tspan x="1814" dy="0">≤1 SCOPED</tspan><tspan x="1814" dy="19">REPAIR</tspan></text></g><g><rect x="1065" y="742" width="180" height="43" rx="5" fill="#161614" stroke="#55534a" stroke-width="1.5"/><text x="1081" y="768.5" class="mono" fill="#f1efe8" font-size="14" font-weight="620" letter-spacing=".035em"><tspan x="1081" dy="0">GOVERNED SQL</tspan></text></g><g><rect x="1260" y="742" width="235" height="43" rx="5" fill="#161614" stroke="#55534a" stroke-width="1.5"/><text x="1276" y="758.5" class="mono" fill="#f1efe8" font-size="14" font-weight="620" letter-spacing=".035em"><tspan x="1276" dy="0">SCOPED DOCUMENT</tspan><tspan x="1276" dy="18">RETRIEVAL</tspan></text></g><path d="M 1155 742 C 1200 720, 1330 720, 1460 716" class="active-line" marker-end="url(#arrow-active)"/><path d="M 1378 742 C 1410 730, 1445 724, 1490 716" class="active-line" marker-end="url(#arrow-active)"/><g><rect x="650" y="748" width="350" height="36" rx="3" fill="#1e1e1a" stroke="#55534a" stroke-width="1.25"/><text x="663" y="771" class="mono" fill="#aaa79f" font-size="10.5" font-weight="600" letter-spacing=".045em" text-anchor="start">AGENT CONVERSATION STATE / OFF</text></g><g><rect x="1515" y="748" width="430" height="36" rx="3" fill="#1e1e1a" stroke="#aaa79f" stroke-width="1.25" stroke-dasharray="9 8"/><text x="1528" y="771" class="mono" fill="#aaa79f" font-size="10.5" font-weight="600" letter-spacing=".045em" text-anchor="start">MLFLOW TRACE / OPTIONAL FEEDBACK</text></g><path d="M 1966 683 C 2040 705, 2020 842, 1885 932" class="active-line" marker-end="url(#arrow-active)"/></g></svg>
